<svg width="130" height="36" fill="none" xmlns="http://www.w3.org/2000/svg"><path d="M70.988.003h-4.043v7.864a7.86 7.86 0 0 0-8.894.91 7.756 7.756 0 0 0-2.232 8.611 7.825 7.825 0 0 0 7.343 5.074H66.1V18.44h-2.94a3.784 3.784 0 0 1-3.495-2.323 3.748 3.748 0 0 1 .82-4.101 3.799 3.799 0 0 1 4.124-.816 3.763 3.763 0 0 1 2.335 3.477h4.043V.002zM2.913 9.348A7.744 7.744 0 0 0 .5 15.055a7.522 7.522 0 0 0 2.283 5.513c1.339 1.298 3.196 2.171 5.64 2.171a7.297 7.297 0 0 0 3.718-.882v-4.215a4.598 4.598 0 0 1-3 1.134 3.875 3.875 0 0 1-2.836-1.167 3.735 3.735 0 0 1-.979-2.593 3.799 3.799 0 0 1 1.076-2.723 3.75 3.75 0 0 1 2.674-1.037 4.73 4.73 0 0 1 3.067 1.11V8.113a8.324 8.324 0 0 0-3.686-.81c-1.99 0-3.914.519-5.545 2.044zM14.565 0h4.433v22.465h-4.433V0z" fill="#335061"/><path fill-rule="evenodd" clip-rule="evenodd" d="M22.995 9.64c1.202-1.299 3.243-2.336 5.855-2.336 2.613 0 4.663 1.037 5.855 2.338 1.353 1.459 2.014 3.533 2.014 5.382a8.112 8.112 0 0 1-2.013 5.383c-1.202 1.298-3.243 2.335-5.856 2.335-2.612 0-4.653-1.037-5.854-2.335a8.21 8.21 0 0 1 0-10.768zm5.884 9.145a3.16 3.16 0 0 0 2.404-1.037 4.242 4.242 0 0 0 0-5.45 3.354 3.354 0 0 0-4.865 0 4.242 4.242 0 0 0 0 5.45 3.206 3.206 0 0 0 2.461 1.037z" fill="#335061"/><path d="M48.814 15.56c0 .712-.097 1.686-.783 2.335a2.92 2.92 0 0 1-1.988.682 2.78 2.78 0 0 1-1.952-.682c-.75-.683-.814-1.686-.814-2.335V7.582h-4.7v8.73c0 1.588.261 3.05 1.597 4.345 1.673 1.622 4.076 2.088 5.869 2.088 1.729 0 4.182-.469 5.836-2.088 1.466-1.429 1.63-2.984 1.63-4.637V7.582h-4.695v7.978z" fill="#335061"/><path d="M74.778 35.983c-4.32-.004-7.822-3.486-7.827-7.784V15.515h4.043v12.682a3.763 3.763 0 0 0 2.334 3.478 3.798 3.798 0 0 0 4.124-.814 3.748 3.748 0 0 0 .821-4.101 3.784 3.784 0 0 0-3.495-2.324h-2.945v-4.02h2.945c4.322 0 7.826 3.484 7.826 7.783 0 4.3-3.504 7.784-7.826 7.784z" fill="#1997B5"/><path fill-rule="evenodd" clip-rule="evenodd" d="M88.832 28.882h10.832l.034-.472c0-1.78-.326-4.046-2.05-5.857-1.79-1.89-4.118-2.168-5.757-2.168-1.64 0-3.82.324-5.577 2.071-1.463 1.487-2.21 3.622-2.21 5.694 0 2.395.911 4.303 2.18 5.565 1.692 1.683 3.61 2.28 5.79 2.28a8.834 8.834 0 0 0 4.588-1.276 6.46 6.46 0 0 0 2.788-3.624l-4.425-.452a2.828 2.828 0 0 1-1.01 1.198 3.87 3.87 0 0 1-1.898.407c-.714 0-1.69-.13-2.407-.907a3.933 3.933 0 0 1-.878-2.46zm5.563-4.457c.459.468.784 1.05.942 1.684h-6.343c.123-.583.404-1.12.814-1.553a3.452 3.452 0 0 1 4.587-.13zm11.495 4.457h10.835l.02-.486c0-1.78-.327-4.046-2.05-5.856-1.79-1.892-4.118-2.169-5.758-2.169-1.639 0-3.82.324-5.576 2.071-1.464 1.487-2.211 3.622-2.211 5.694 0 2.396.912 4.303 2.18 5.565 1.693 1.683 3.611 2.28 5.791 2.28 1.626 0 3.193-.236 4.587-1.068a7.109 7.109 0 0 0 2.788-3.832l-4.425-.452a2.828 2.828 0 0 1-1.009 1.198 3.87 3.87 0 0 1-1.888.421c-.713 0-1.69-.13-2.406-.907a3.93 3.93 0 0 1-.878-2.46zm5.566-4.457c.459.468.784 1.049.942 1.683h-6.343a3.227 3.227 0 0 1 .814-1.552 3.452 3.452 0 0 1 4.587-.13z" fill="#1997B5"/><path d="M127.066 24.755a5.348 5.348 0 0 0-2.57-.81 1.998 1.998 0 0 0-1.333.422.996.996 0 0 0-.293.646.754.754 0 0 0 .454.646c.45.202.916.365 1.394.485l1.236.389a6.181 6.181 0 0 1 2.406 1.261c.836.777 1.137 1.664 1.137 2.751a5.226 5.226 0 0 1-1.486 3.791c-1.43 1.423-3.187 1.664-4.717 1.664-1.952 0-4.065-.422-5.953-2.072l1.985-3.139a8.071 8.071 0 0 0 1.595 1.068 4.394 4.394 0 0 0 1.952.452c.292 0 1.04 0 1.464-.324.296-.224.475-.568.487-.938a.954.954 0 0 0-.521-.832 6.194 6.194 0 0 0-1.43-.518l-1.171-.355a5.807 5.807 0 0 1-2.342-1.326 3.55 3.55 0 0 1-1.04-2.62 4.458 4.458 0 0 1 1.394-3.328c1.302-1.198 3.067-1.456 4.391-1.456a9.192 9.192 0 0 1 4.815 1.229l-1.854 2.914z" fill="#1997B5"/></svg>